<svg xmlns="http://www.w3.org/2000/svg" viewBox="0 0 128 128">
  <defs>
    <linearGradient id="grad" x1="0%" y1="0%" x2="100%" y2="100%">
      <stop offset="0%" style="stop-color:#00b09b;stop-opacity:1" />
      <stop offset="100%" style="stop-color:#25d366;stop-opacity:1" />
    </linearGradient>
  </defs>
  <rect width="128" height="128" rx="24" fill="url(#grad)"/>
  <g fill="white">
    <path d="M64 20C39.7 20 20 39.7 20 64c0 9.8 3.2 18.9 8.6 26.3L24 108l18.3-4.5C49.6 108.3 56.6 111 64 111c24.3 0 44-19.7 44-44S88.3 20 64 20zm0 80c-7.4 0-14.3-2.2-20-6l-1.4-.9-14.5 3.6 3.7-13.7-.9-1.5C26.2 76.3 24 70.3 24 64c0-22.1 17.9-40 40-40s40 17.9 40 40-17.9 40-40 40z"/>
    <path d="M82 72c-1.1-.6-6.5-3.2-7.5-3.6-1-.4-1.7-.6-2.4.6-.7 1.2-2.7 3.6-3.3 4.3-.6.7-1.2.8-2.3.3-1.1-.6-4.6-1.7-8.8-5.4-3.2-2.9-5.4-6.5-6-7.7-.6-1.2-.1-1.8.5-2.4.5-.5 1.1-1.2 1.7-1.8.6-.6.8-1 1.2-1.7.4-.7.2-1.3-.1-1.8-.3-.6-2.4-5.8-3.3-7.9-.9-2.1-1.8-1.8-2.4-1.8-.6 0-1.3 0-2 0s-1.8.3-2.7 1.3c-1 1-3.6 3.5-3.6 8.6s3.7 10 4.2 10.7c.6.7 8.3 12.7 20.1 17.8 2.8 1.2 5 1.9 6.7 2.5 2.8.9 5.4.8 7.4.5 2.3-.3 6.5-2.7 7.4-5.2.9-2.6.9-4.8.6-5.2-.3-.5-1-.8-2.1-1.3z"/>
  </g>
</svg>
